<?xml version="1.0" standalone="no"?>
<!DOCTYPE svg PUBLIC "-//W3C//DTD SVG 20010904//EN"
 "http://www.w3.org/TR/2001/REC-SVG-20010904/DTD/svg10.dtd">
<svg version="1.0" xmlns="http://www.w3.org/2000/svg"
 width="1017.000000pt" height="1017.000000pt" viewBox="0 0 1017.000000 1017.000000"
 preserveAspectRatio="xMidYMid meet">
<metadata>
Created by potrace 1.11, written by Peter Selinger 2001-2013
</metadata>
<g transform="translate(0.000000,1017.000000) scale(0.100000,-0.100000)"
fill="#000000" stroke="none">
<path d="M6331 7330 l-640 -679 18 -53 c11 -29 83 -226 160 -437 l142 -385
-54 -55 c-30 -31 -560 -594 -1177 -1251 -618 -657 -1159 -1232 -1202 -1277
-145 -153 -198 -269 -198 -435 0 -173 48 -289 169 -408 51 -51 97 -86 141
-107 68 -33 192 -63 257 -63 107 1 267 58 350 126 24 20 606 633 1293 1363
l1250 1328 422 -127 c233 -70 433 -130 444 -134 19 -6 108 84 662 673 l640
680 -87 238 c-49 131 -105 284 -126 341 -21 57 -41 102 -46 100 -5 -2 -138
-140 -295 -308 -158 -168 -321 -340 -362 -383 l-76 -79 -416 98 -416 98 -117
391 c-65 215 -120 400 -123 411 -4 16 76 106 360 409 201 213 364 390 363 392
-2 2 -154 48 -338 103 -184 55 -340 102 -346 105 -7 2 -300 -301 -652 -675z"/>
<path d="M4955 7503 c-49 -2 -93 -7 -97 -11 -4 -4 -37 -203 -73 -442 -36 -239
-69 -437 -73 -441 -4 -3 -88 -18 -187 -33 -99 -15 -248 -45 -331 -67 -82 -21
-155 -39 -162 -39 -6 0 -115 173 -242 385 l-231 384 -112 -40 c-174 -63 -176
-64 -289 -117 -60 -28 -108 -56 -108 -62 0 -6 47 -203 105 -438 58 -234 102
-429 98 -432 -5 -3 -68 -42 -140 -85 -73 -43 -201 -130 -285 -192 -84 -62
-153 -113 -155 -113 -1 0 -163 119 -360 265 -197 146 -360 265 -363 265 -3 -1
-49 -40 -103 -89 -117 -106 -288 -292 -283 -307 3 -7 120 -168 262 -360 141
-191 257 -353 257 -359 0 -6 -45 -71 -100 -145 -97 -132 -186 -266 -252 -382
-18 -32 -37 -58 -42 -58 -5 0 -198 47 -429 105 -231 58 -424 105 -429 105 -24
0 -230 -495 -213 -512 4 -3 176 -108 382 -232 206 -125 376 -231 378 -236 2
-5 -15 -78 -37 -162 -22 -84 -52 -234 -67 -333 -15 -99 -30 -184 -34 -188 -4
-4 -202 -37 -441 -73 -239 -36 -438 -69 -443 -74 -9 -9 -13 -536 -5 -545 3 -2
203 -34 444 -70 241 -37 443 -68 447 -71 4 -3 8 -18 8 -34 0 -63 -17 -60 317
-60 l305 0 -5 23 c-25 105 -32 207 -31 482 0 312 8 412 55 649 170 860 681
1620 1419 2110 363 242 747 400 1176 485 240 48 334 55 672 56 282 0 321 2
316 15 -14 37 -228 620 -244 666 l-18 52 134 143 c100 108 132 148 129 164 -3
11 -19 115 -36 230 -17 116 -32 211 -32 211 -6 5 -377 10 -452 7z"/>
<path d="M4945 5553 c-1140 -92 -2077 -788 -2472 -1837 -124 -331 -178 -632
-177 -1006 0 -217 10 -344 39 -477 l5 -23 328 0 328 0 -17 84 c-26 127 -39
272 -39 422 0 669 294 1284 820 1714 177 145 459 299 671 367 l120 38 278 295
c152 162 306 325 340 363 l63 67 -123 -2 c-68 -1 -142 -3 -164 -5z"/>
<path d="M8192 4614 l-213 -225 19 -32 c202 -337 349 -781 414 -1247 27 -195
15 -736 -19 -877 l-5 -23 306 0 306 0 5 25 c3 14 7 36 10 50 3 14 10 25 15 25
25 0 874 131 879 135 9 10 5 535 -5 544 -5 5 -204 39 -443 75 -239 36 -437 69
-441 73 -4 4 -19 89 -34 188 -15 99 -45 249 -67 334 -22 85 -38 158 -37 162 2
5 172 110 378 235 206 124 378 229 382 232 18 17 -187 512 -212 512 -6 0 -199
-47 -430 -105 -231 -58 -424 -105 -428 -105 -5 0 -43 56 -83 125 -41 69 -76
125 -79 125 -3 0 -101 -102 -218 -226z"/>
<path d="M6836 4386 c-69 -74 -126 -137 -126 -141 0 -4 24 -33 54 -65 218
-236 397 -567 485 -900 47 -177 62 -288 68 -500 6 -199 -8 -372 -41 -512 l-13
-58 328 0 c303 0 328 1 333 18 43 153 56 620 23 852 -65 454 -213 849 -453
1210 l-63 95 -228 68 c-125 37 -231 67 -234 67 -4 0 -63 -60 -133 -134z"/>
</g>
</svg>
